<?xml version="1.0" standalone="no"?><!DOCTYPE svg PUBLIC "-//W3C//DTD SVG 1.1//EN" "http://www.w3.org/Graphics/SVG/1.1/DTD/svg11.dtd"><svg t="1642781964357" class="icon" viewBox="0 0 1027 1024" version="1.1" xmlns="http://www.w3.org/2000/svg" p-id="3026" xmlns:xlink="http://www.w3.org/1999/xlink" width="200.5859375" height="200"><defs><style type="text/css"></style></defs><path d="M247.562814 276.817487c7.38929 0.604971 14.77858 1.814913 22.167869 1.685277 83.486011-1.598852 166.972022-3.802675 250.501245-5.012618 58.379711-0.821032 115.030932 9.031354 167.576993 35.261173 75.751023 37.810693 135.81601 91.82597 165.113896 173.583491 13.006879 36.298266 10.457357 74.022534-3.11128 110.018315-6.784319 17.976284-5.660801 28.347217 13.957548 36.989661 33.705532 14.865004 46.064228 38.199603 36.730388 61.577415-9.506689 23.809934-42.045491 37.378571-72.250834 25.408786-21.390049-8.469595-33.359835-3.327341-48.4409 12.056209-42.21834 42.99616-96.233616 64.299785-154.09478 76.701693-73.374351 15.729248-146.143731 11.148753-217.789593-9.549901-53.972064-15.599612-103.579694-38.631726-136.118496-88.282568-33.014137-50.342237-26.618728-113.561717 16.93919-155.088661 5.185467-4.969405 10.11166-10.327721 15.815673-14.60573 17.673798-13.266152 29.730008-24.933451 15.037853-50.77436-11.753724-20.655442 13.525425-45.459256 41.008398-42.650462 11.27839 1.16673 22.081445 6.568258 33.359834 8.296746 7.821412 1.209942 16.679917 1.080306 23.982783-1.469215 4.796557-1.685277 7.734988-8.728869 11.494451-13.352576-5.358315-2.592733-10.457357-6.438621-16.118159-7.605351-70.997679-14.951428-142.946027-26.402667-212.776976-45.588893-29.686796-8.16711-58.077225-28.952188-81.54146-50.126177-35.304385-31.847407-29.730008-76.226358 9.809174-102.5426 43.039372-28.649702 91.480272-41.267671 143.032451-42.088703 5.660801-0.086424 12.488332 0.043212 16.766342 2.981643 8.426383 5.790438 20.050471 12.704393 21.692535 20.871503 1.598852 7.951049-5.617589 20.180107-12.531544 26.791577-8.55602 8.123898-20.828291 12.44512-31.544922 18.321981-6.61147 3.629827-13.266152 7.173229-19.920834 10.759843 0.38891 2.506309 0.821032 4.969405 1.253155 7.432502z m-98.955986-11.580875c-20.698654 11.191965-20.093683 25.88412-9.377052 37.032874 14.173608 14.77858 30.205342 31.760982 48.700173 37.594632 57.299405 18.192345 115.981601 32.279529 174.447736 46.582774 30.594252 7.518926 62.484872 10.154872 92.603789 19.013377 16.204583 4.753344 28.001519 5.358315 41.743006-4.580495 14.476094-10.50057 30.032494-20.050471 46.323501-27.266912 5.660801-2.506309 18.797316 1.037093 21.649322 5.83365 2.981643 5.05583-0.259273 16.507068-4.580495 22.340718-4.796557 6.525045-14.00076 9.679537-21.044352 14.648943-73.417563 51.681816-148.390767 101.332658-219.604506 155.952906-41.82943 32.063468-44.94071 77.998059-14.648943 120.648521 10.543782 14.821792 24.847027 28.822551 40.533063 37.767481 89.017175 50.817572 184.516183 62.225598 283.601806 38.977423 44.854285-10.543782 88.368992-26.66194 122.031312-60.583534 5.271891-5.315103 7.432502-14.173608 9.809174-21.822171 2.506309-8.080685 3.456978-16.593493 5.099042-24.933452 8.512808 1.901338 17.155252 3.327341 25.495211 5.83365 19.877622 5.920074 39.409546 12.877242 59.460016 18.062708 4.148373 1.080306 9.765962-3.586614 14.735367-5.617588-2.290248-5.401528-3.197704-13.741486-7.216441-15.642824-9.938811-4.839769-21.2172-8.94493-32.10668-9.33384-19.315863-0.734608-37.94033-2.549521-51.206482-17.760223-4.753344-5.44474-4.969405-14.821792-7.216441-22.38393 7.38929-1.94455 14.951428-3.456978 22.16787-5.963287 7.475714-2.592733 19.013377-4.27801 21.2172-9.549901 22.167869-53.280668 20.698654-104.357514-14.476094-153.187323-63.82445-88.671477-150.20568-134.778917-258.625142-137.112377-63.262691-1.382791-126.611807 3.586614-189.917712 3.586614-50.255813 0-100.641263-1.901338-150.767438-5.660801-23.248175-1.728489-45.891379-10.11166-48.82981-42.477613z m75.405325-25.927332c-0.907457-2.549521-1.858126-5.142254-2.765582-7.691776-13.61185 4.061949-27.482973 7.38929-40.619487 12.574757-4.537283 1.771701-7.173229 8.253534-10.716631 12.574756 6.179348 1.685277 13.827911 6.481833 18.321981 4.450859 12.617969-5.83365 23.93957-14.432882 35.779719-21.908596z" fill="#9770E5" p-id="3027"></path><path d="M400.663713 624.546229c-8.642444-12.099422-17.803435-19.402287-17.846648-26.705152-0.043212-6.049711 10.716631-12.185846 16.679918-18.27877 6.395409 6.438621 16.463856 12.099422 17.976284 19.488712 1.16673 5.704013-8.469595 13.568637-16.809554 25.49521zM580.815462 681.197451c-8.123898-12.358695-17.544162-20.396168-16.291007-26.229818 1.55564-7.38929 11.753724-12.920454 18.235557-19.272651 5.83365 6.308984 16.33422 12.661181 16.247795 18.840529-0.086424 7.302865-9.33384 14.519306-18.192345 26.66194z" fill="#9770E5" p-id="3028"></path></svg>